<svg width="12" height="12" viewBox="0 0 12 12" fill="none" xmlns="http://www.w3.org/2000/svg">
    <path fill-rule="evenodd" clip-rule="evenodd" d="M11.7914 0.208565C11.5133 -0.069522 11.0625 -0.0695215 10.7844 0.208565L6 4.99296L1.21561 0.208565C0.937521 -0.0695215 0.486653 -0.069522 0.208566 0.208565C-0.0695213 0.486652 -0.0695213 0.93752 0.208566 1.21561L4.99296 6L0.208565 10.7844C-0.0695217 11.0625 -0.0695217 11.5133 0.208565 11.7914C0.486652 12.0695 0.937521 12.0695 1.21561 11.7914L6 7.00704L10.7844 11.7914C11.0625 12.0695 11.5133 12.0695 11.7914 11.7914C12.0695 11.5133 12.0695 11.0625 11.7914 10.7844L7.00704 6L11.7914 1.21561C12.0695 0.93752 12.0695 0.486652 11.7914 0.208565Z" fill="black"/>
</svg>
