<svg width="375" height="245" viewBox="0 0 375 245" fill="none" xmlns="http://www.w3.org/2000/svg">
    <ellipse cx="187.501" cy="196.624" rx="187.501" ry="47.7822" fill="url(#paint0_linear)"/>
    <ellipse cx="249.202" cy="182.082" rx="19.4487" ry="3.88975" transform="rotate(4 249.202 182.082)" fill="#D1D1D6"/>
    <path fill-rule="evenodd" clip-rule="evenodd" d="M249.143 177.493C250.583 176.715 251.94 175.444 251.94 175.444L254.236 174.608L255.65 177.642L248.34 180.302C248.34 180.302 247.703 178.271 249.143 177.493Z" fill="#7034F1"/>
    <path fill-rule="evenodd" clip-rule="evenodd" d="M246.424 109.22L250.691 109.379L249.566 112.576L246.186 111.904L246.424 109.22Z" fill="#E3A593"/>
    <path fill-rule="evenodd" clip-rule="evenodd" d="M243.754 139.227H251.916L251.228 160.168L254.228 174.229L251.487 175.183L244.85 161.454L243.754 139.227Z" fill="url(#paint1_linear)"/>
    <path fill-rule="evenodd" clip-rule="evenodd" d="M238.802 137.675L250.968 139.227L241.912 155.317L240.046 176.928H235.993L233.846 153.914L238.802 137.675Z" fill="url(#paint2_linear)"/>
    <path fill-rule="evenodd" clip-rule="evenodd" d="M242.407 115.902C242.407 115.902 232.086 112.459 232.966 110.695C233.845 108.931 245.977 103.316 245.977 103.316V107.176L241.265 110.061C241.265 110.061 246.66 111.492 248.99 111.492C251.32 111.492 254.918 112.921 255.962 114.775C256.612 115.928 254.227 120.476 254.227 120.476L253.203 139.718L237.029 137.675L242.407 115.902Z" fill="url(#paint3_linear)"/>
    <path fill-rule="evenodd" clip-rule="evenodd" d="M247.641 131.028C248.777 130.466 251.518 129.95 251.518 130.741C251.518 131.532 247.641 133.67 247.641 133.67C247.641 133.67 246.504 131.591 247.641 131.028Z" fill="#EEB3A2"/>
    <path fill-rule="evenodd" clip-rule="evenodd" d="M245.955 101.81C247.233 100.276 250.071 98.3021 253.102 100.703C256.134 103.104 254.56 106.777 252.863 108.786C251.166 110.796 246.859 111.255 245.641 109.891C244.422 108.527 244.677 103.343 245.955 101.81Z" fill="#EEB3A2"/>
    <path fill-rule="evenodd" clip-rule="evenodd" d="M246.515 100.079C247.351 98.5753 251.898 99.3496 252.941 100.079C255.649 101.973 255.929 106.911 252.272 109.761C251.599 110.285 251.325 107.497 251.325 107.497C251.325 107.497 252.571 106.299 252.272 105.832C251.973 105.366 250.217 105.949 250.217 105.949C250.217 105.949 245.679 101.583 246.515 100.079Z" fill="#311616"/>
    <path fill-rule="evenodd" clip-rule="evenodd" d="M255.525 114.158C258.634 117.329 261.897 119.596 262.323 121.272C262.749 122.948 251.329 131.473 251.329 131.473L250.102 130.097L257.087 121.582L254.227 120.477C254.227 120.477 252.417 110.988 255.525 114.158Z" fill="url(#paint4_linear)"/>
    <path fill-rule="evenodd" clip-rule="evenodd" d="M232.007 178.448C234.133 178.181 236.378 177.365 236.378 177.365H239.586L239.969 181.092H229.754C229.754 181.092 229.88 178.715 232.007 178.448Z" fill="#2744F3"/>
    <ellipse cx="168.629" cy="166.455" rx="23.3385" ry="3.88975" transform="rotate(-1 168.629 166.455)" fill="#D1D1D6"/>
    <path fill-rule="evenodd" clip-rule="evenodd" d="M116.279 7.80108L120.154 9.92306L123.722 5.93774L128.458 8.9755L132.028 4.54498L135.663 8.2854L138.402 4.54498L143.29 7.80108L147.18 3.13941L151.856 6.92204L155.983 2.79899L161.073 6.92204L164.23 1.32183L168.874 5.93774L172.956 1.62907L177.632 4.85719L180.915 0L185.606 4.54498L189.617 0L194.763 3.13941L199.747 0L202.113 3.13941L219.927 144.778C219.927 144.778 149.188 152.224 144.454 152.563C139.721 152.901 132.584 148.129 131.753 138.826C130.922 129.523 116.279 7.80108 116.279 7.80108Z" fill="url(#paint5_linear)"/>
    <rect x="133.947" y="26.1787" width="57.7905" height="7.77949" rx="3.88975" transform="rotate(-5 133.947 26.1787)" fill="#EBEBEB"/>
    <rect x="136.197" y="45.6753" width="57.7905" height="7.77949" rx="3.88975" transform="rotate(-4 136.197 45.6753)" fill="#EBEBEB"/>
    <rect x="139.531" y="63.457" width="57.7905" height="7.77949" rx="3.88975" transform="rotate(-4 139.531 63.457)" fill="#EBEBEB"/>
    <rect x="141.756" y="83.4614" width="57.7905" height="7.77949" rx="3.88975" transform="rotate(-4 141.756 83.4614)" fill="#EBEBEB"/>
    <path fill-rule="evenodd" clip-rule="evenodd" d="M153.965 136.422L229.162 128.079C229.162 128.079 231.856 143.52 219.926 144.778C207.996 146.036 144.453 152.563 144.453 152.563C154.848 151.778 153.965 136.422 153.965 136.422Z" fill="url(#paint6_linear)"/>
    <defs>
        <linearGradient id="paint0_linear" x1="-150.813" y1="40.4634" x2="-149.152" y2="200.127" gradientUnits="userSpaceOnUse">
            <stop stop-color="white"/>
            <stop offset="1" stop-color="#E5E5EA"/>
        </linearGradient>
        <linearGradient id="paint1_linear" x1="240.227" y1="158.149" x2="272.658" y2="175.407" gradientUnits="userSpaceOnUse">
            <stop/>
            <stop offset="1" stop-color="#797979"/>
        </linearGradient>
        <linearGradient id="paint2_linear" x1="250.116" y1="230.874" x2="296.916" y2="192.077" gradientUnits="userSpaceOnUse">
            <stop/>
            <stop offset="1" stop-color="#797979"/>
        </linearGradient>
        <linearGradient id="paint3_linear" x1="231.591" y1="113.429" x2="251.641" y2="140.609" gradientUnits="userSpaceOnUse">
            <stop stop-color="#7533F0"/>
            <stop offset="1" stop-color="#2345F3"/>
        </linearGradient>
        <linearGradient id="paint4_linear" x1="266.98" y1="137.486" x2="283.593" y2="93.0187" gradientUnits="userSpaceOnUse">
            <stop stop-color="#7533F0"/>
            <stop offset="1" stop-color="#2345F3"/>
        </linearGradient>
        <linearGradient id="paint5_linear" x1="281.791" y1="96.8251" x2="130.156" y2="-26.1354" gradientUnits="userSpaceOnUse">
            <stop stop-color="white"/>
            <stop offset="1" stop-color="white"/>
        </linearGradient>
        <linearGradient id="paint6_linear" x1="44.7514" y1="144.058" x2="75.8711" y2="235.778" gradientUnits="userSpaceOnUse">
            <stop stop-color="white"/>
            <stop offset="1" stop-color="#F6F6F6"/>
        </linearGradient>
    </defs>
</svg>
