<svg width="64" height="40" viewBox="0 0 64 40" fill="none" xmlns="http://www.w3.org/2000/svg">
    <path d="M63.3722 20.1618H63.3785C63.3785 18.1841 62.5179 16.3873 61.1187 15.0471L61.1212 15.0449L48.9595 0.98584H13.9697L2.15849 15.33L2.16355 15.3346C1.04619 16.5243 0.359013 18.0361 0.240572 19.686C0.152049 19.8408 0.0883789 20.008 0.0883789 20.1944V38.8541C0.0883789 39.4747 0.647138 39.9765 1.33554 39.9765H62.1325C62.8222 39.9765 63.3797 39.4749 63.3797 38.8541V20.1944C63.3795 20.1832 63.3722 20.173 63.3722 20.1618ZM15.0997 3.23072H47.8682L55.2921 12.6891C55.2136 12.6869 55.1387 12.6779 55.0589 12.6779H40.1001V16.0428C40.1001 19.8634 35.6429 19.0373 34.2762 19.0373H29.2953C27.9284 19.0373 23.4714 19.8634 23.4714 16.0428V12.6779H8.51118C8.35531 12.6779 8.20311 12.6915 8.04846 12.6981L15.0997 3.23072ZM60.8854 37.7316H2.58377V20.1944C2.58377 20.1832 2.57748 20.1731 2.57625 20.1618H2.68717C2.68717 17.2728 5.29978 14.9225 8.51103 14.9225H20.9769V16.0426C20.9769 19.907 24.2419 21.2819 29.2951 21.2819H34.2761C39.3305 21.2819 42.5942 19.907 42.5942 16.0426V14.9225H55.0614C56.6663 14.9225 58.1218 15.5095 59.1767 16.458L59.1792 16.4602C60.233 17.4086 60.884 18.7174 60.884 20.1618H60.8927C60.8927 20.173 60.8852 20.1831 60.8852 20.1944C60.8854 20.1944 60.8854 37.7316 60.8854 37.7316Z" fill="#8E8E93"/>
</svg>
