<svg width="20" height="20" viewBox="0 0 20 20" fill="none" xmlns="http://www.w3.org/2000/svg">
    <path fill-rule="evenodd" clip-rule="evenodd" d="M9.01211 0.00489933C9.33937 0.00726043 9.66913 0.00963965 10.0002 0.00963965H9.99574C10.3896 0.00963965 10.7704 0.00707034 11.1389 0.00458464C14.3323 -0.016958 16.5947 -0.0322207 18.314 1.68574C20.0267 3.39601 20.0145 5.61963 19.9965 8.91496V8.91547C19.9946 9.26428 19.9926 9.6251 19.9926 9.99859C19.9926 10.3437 19.9938 10.6761 19.995 10.9965V10.9971V10.9978C20.0041 13.4057 20.0106 15.1382 19.4681 16.5407C18.096 20.058 14.6091 20.0263 11.0294 19.9938L11.0289 19.9938C10.6855 19.9907 10.3413 19.9875 9.99799 19.9875C9.66898 19.9875 9.34092 19.9899 9.01501 19.9923C5.31379 20.0193 1.89138 20.0442 0.529062 16.5407C-0.0124347 15.1478 -0.00522968 13.0765 0.00261116 10.8224C0.00355814 10.5502 0.00451439 10.2753 0.00451439 9.99859C0.00451439 9.65797 0.00330679 9.32931 0.00214074 9.01195C-0.00671014 6.60307 -0.013167 4.84574 0.529062 3.45539C1.89462 -0.0464523 5.29112 -0.021947 9.01211 0.00489933ZM14.1364 4.66602C14.1364 4.00437 14.6734 3.46784 15.3356 3.46784C15.9977 3.46784 16.5347 4.00437 16.5347 4.66602C16.5347 5.32767 15.9977 5.8642 15.3356 5.8642C14.6734 5.8642 14.1364 5.32767 14.1364 4.66602ZM10.0001 4.86886C7.16532 4.86886 4.86747 7.16603 4.86747 9.9986C4.86747 12.8312 7.16532 15.1272 10.0001 15.1272C12.8349 15.1272 15.1317 12.8312 15.1317 9.9986C15.1317 7.16603 12.8349 4.86886 10.0001 4.86886ZM10.0005 6.66888C14.4056 6.66888 14.4112 13.3282 10.0005 13.3282C5.59659 13.3282 5.58982 6.66888 10.0005 6.66888Z" fill="black" fill-opacity="0.3"/>
</svg>

