<svg width="27" height="26" viewBox="0 0 27 26" fill="none" xmlns="http://www.w3.org/2000/svg">
    <path d="M1.86719 7.89137C4.5477 5.58634 7.53695 4.25527 10.8345 3.02206C11.7759 2.67001 12.8064 2.24007 13.8217 2.08964C14.3834 2.00644 14.9447 1.86296 15.5082 1.80186C16.9745 1.64286 18.9503 1.49385 20.1588 2.45225C20.8243 2.98008 21.3966 3.5734 21.9891 4.18471C22.4075 4.61639 22.5664 5.13805 22.8409 5.65817C23.0643 6.08143 23.2424 6.27567 23.3129 6.78628C23.3562 7.10073 23.5396 7.59661 23.6812 7.87986C23.9075 8.33249 23.2005 7.9652 22.91 7.86835C21.6272 7.44075 20.2545 7.15726 18.927 6.90715C18.411 6.80992 16.854 6.56829 17.373 6.64815C18.3579 6.79967 19.3629 7.1677 20.3084 7.47696C20.9185 7.67652 21.5416 7.81044 22.0639 8.20218C22.226 8.3238 23.1842 8.92467 23.3704 8.78926C23.9146 8.39347 24.0432 6.99956 24.3259 6.42943C24.5146 6.04891 24.8878 5.39447 25.2813 5.19771" stroke="white" stroke-width="2" stroke-linecap="round" stroke-linejoin="round"/>
    <path d="M3.93945 19.5985C5.54374 21.2185 7.26787 23.3999 9.61456 23.944C11.1875 24.3088 12.9035 24.1687 14.5069 24.157C15.803 24.1475 17.061 23.5259 18.0984 22.7871C18.8116 22.2793 19.6301 21.8412 20.1935 21.1525C20.5882 20.6702 20.9423 20.1109 21.2928 19.5927C21.7335 18.9413 21.9195 18.1505 22.4037 17.5264C22.6992 17.1456 22.9878 16.7556 23.1059 16.2832" stroke="white" stroke-width="2" stroke-linecap="round" stroke-linejoin="round"/>
    <path d="M3.52387 19.3914C3.456 20.1549 3.47648 20.9424 3.35696 21.6994C3.28627 22.1471 3.12824 22.5604 3.10946 23.0174C3.08746 23.5529 3.00586 24.1753 3.00586 23.2246" stroke="white" stroke-width="2" stroke-linecap="round" stroke-linejoin="round"/>
    <path d="M3.83594 19.495C5.36695 19.495 6.89796 19.495 8.42897 19.495C8.86019 19.495 9.23869 19.5243 9.63767 19.3914" stroke="white" stroke-width="2" stroke-linecap="round" stroke-linejoin="round"/>
</svg>
