<svg width="142" height="36" viewBox="0 0 142 36" fill="none" xmlns="http://www.w3.org/2000/svg">
<path fill-rule="evenodd" clip-rule="evenodd" d="M27.2447 0.844849C12.8321 0.844849 13.3683 15.391 13.3683 15.391C2.10937 15.7979 -1.30428 24.3151 2.10937 30.5231C4.18111 34.2906 9.37412 35.837 13.3683 34.1982C18.1369 32.2415 19.7088 27.5571 19.7088 21.7051C19.7088 21.7051 24.5743 21.9859 27.2447 23.2317V16.9608C25.1874 15.7697 19.7088 15.391 19.7088 15.391C19.7088 14.1942 19.7088 7.4824 27.2447 7.4824V0.844849ZM13.5172 22.0869C13.5172 22.0869 9.57177 21.8051 7.81535 23.5637C7.73705 23.6421 7.66313 23.7249 7.59336 23.8116C5.50496 26.4069 9.56635 30.3217 11.9204 27.9647C13.5906 26.2924 13.5172 22.0869 13.5172 22.0869Z" fill="url(#paint0_linear)"/>
<mask id="mask0" mask-type="alpha" maskUnits="userSpaceOnUse" x="0" y="0" width="28" height="35">
<path fill-rule="evenodd" clip-rule="evenodd" d="M27.2447 0.844849C12.8321 0.844849 13.3683 15.391 13.3683 15.391C2.10937 15.7979 -1.30428 24.3151 2.10937 30.5231C4.18111 34.2906 9.37412 35.837 13.3683 34.1982C18.1369 32.2415 19.7088 27.5571 19.7088 21.7051C19.7088 21.7051 24.5743 21.9859 27.2447 23.2317V16.9608C25.1874 15.7697 19.7088 15.391 19.7088 15.391C19.7088 14.1942 19.7088 7.4824 27.2447 7.4824V0.844849ZM13.5172 22.0869C13.5172 22.0869 9.57177 21.8051 7.81535 23.5637C7.73705 23.6421 7.66313 23.7249 7.59336 23.8116C5.50496 26.4069 9.56635 30.3217 11.9204 27.9647C13.5906 26.2924 13.5172 22.0869 13.5172 22.0869Z" fill="white"/>
</mask>
<g mask="url(#mask0)">
<path fill-rule="evenodd" clip-rule="evenodd" d="M13.3682 15.391C14.733 15.3005 18.1787 15.3005 19.7088 15.391C19.9335 15.4043 21.322 14.8455 23.868 15.391C24.8292 15.5969 27.2447 16.9607 27.2447 16.9607V23.2317C27.2447 23.2317 20.0984 21.7051 19.7088 21.7051C17.8173 21.7051 15.7609 21.8531 13.5203 22.0869C13.3367 22.1061 10.0365 22.0602 6.882 23.7291C4.33884 25.0745 1.96062 28.2536 0.844694 27.9364C-1.65542 27.2259 2.94662 19.1916 2.94662 19.1916C2.94662 19.1916 5.57181 16.8713 6.882 16.3773C10.4514 15.0313 13.0481 15.4122 13.3682 15.391Z" fill="url(#paint1_linear)"/>
</g>
<path d="M38.972 22.028V2.008L53 1.504L53.028 6.628H43.816L43.984 9.232H50.396L51.264 14.048H44.46V22.028H38.972ZM63.3038 21.468C62.3144 21.916 61.2784 22.1587 60.1958 22.196C59.1318 22.252 58.1518 22.1027 57.2558 21.748C56.3598 21.3747 55.6131 20.8053 55.0158 20.04C54.4371 19.2747 54.1478 18.304 54.1478 17.128L54.1758 1.812L59.0478 0.244L59.2438 16.008C59.2438 16.3813 59.3371 16.68 59.5238 16.904C59.7291 17.128 59.9718 17.2867 60.2518 17.38C60.5318 17.4733 60.8304 17.492 61.1478 17.436C61.4838 17.38 61.8011 17.2493 62.0998 17.044L63.3038 21.468ZM78.5524 14.496C78.5524 15.5227 78.3284 16.5027 77.8804 17.436C77.4511 18.3507 76.8724 19.1533 76.1444 19.844C75.4351 20.5347 74.6137 21.0853 73.6804 21.496C72.7471 21.9067 71.7764 22.112 70.7684 22.112C69.7791 22.112 68.8084 21.9253 67.8564 21.552C66.9231 21.16 66.0831 20.6373 65.3364 19.984C64.5897 19.312 63.9831 18.528 63.5164 17.632C63.0497 16.736 62.7977 15.7747 62.7604 14.748C62.7231 13.6093 62.9471 12.5827 63.4324 11.668C63.9177 10.7347 64.5617 9.95067 65.3644 9.316C66.1671 8.66267 67.0724 8.17733 68.0804 7.86C69.1071 7.524 70.1244 7.36533 71.1324 7.384C72.0471 7.40267 72.9431 7.608 73.8204 8C74.7164 8.37333 75.5097 8.88667 76.2004 9.54C76.9097 10.1747 77.4791 10.9213 77.9084 11.78C78.3377 12.6387 78.5524 13.544 78.5524 14.496ZM70.8524 17.436C71.6737 17.4547 72.3177 17.2027 72.7844 16.68C73.2511 16.1387 73.4844 15.504 73.4844 14.776C73.4844 14.104 73.2511 13.516 72.7844 13.012C72.3177 12.4893 71.7204 12.2187 70.9924 12.2C70.6377 12.2 70.2831 12.256 69.9284 12.368C69.5737 12.4613 69.2564 12.6107 68.9764 12.816C68.7151 13.0213 68.5004 13.2733 68.3324 13.572C68.1644 13.8707 68.0897 14.216 68.1084 14.608C68.1271 15.392 68.3697 16.064 68.8364 16.624C69.3217 17.1653 69.9937 17.436 70.8524 17.436ZM83.8311 7.636L85.0351 14.664L86.3231 8.98L89.3751 9.512L91.1671 14.496L92.5671 7.524H97.1031L93.1551 22H89.2631L87.9471 17.072L86.6311 22H82.7671L78.5671 7.636H83.8311ZM115.062 6.124L109.742 6.404L109.63 21.888L103.498 22.504L103.61 6.6L97.9818 6.88L97.5898 1.476L114.614 0.747998L115.062 6.124ZM127.17 14.496C127.17 15.5227 126.946 16.5027 126.498 17.436C126.068 18.3507 125.49 19.1533 124.762 19.844C124.052 20.5347 123.231 21.0853 122.298 21.496C121.364 21.9067 120.394 22.112 119.386 22.112C118.396 22.112 117.426 21.9253 116.474 21.552C115.54 21.16 114.7 20.6373 113.954 19.984C113.207 19.312 112.6 18.528 112.134 17.632C111.667 16.736 111.415 15.7747 111.378 14.748C111.34 13.6093 111.564 12.5827 112.05 11.668C112.535 10.7347 113.179 9.95067 113.982 9.316C114.784 8.66267 115.69 8.17733 116.698 7.86C117.724 7.524 118.742 7.36533 119.75 7.384C120.664 7.40267 121.56 7.608 122.438 8C123.334 8.37333 124.127 8.88667 124.818 9.54C125.527 10.1747 126.096 10.9213 126.526 11.78C126.955 12.6387 127.17 13.544 127.17 14.496ZM119.47 17.436C120.291 17.4547 120.935 17.2027 121.402 16.68C121.868 16.1387 122.102 15.504 122.102 14.776C122.102 14.104 121.868 13.516 121.402 13.012C120.935 12.4893 120.338 12.2187 119.61 12.2C119.255 12.2 118.9 12.256 118.546 12.368C118.191 12.4613 117.874 12.6107 117.594 12.816C117.332 13.0213 117.118 13.2733 116.95 13.572C116.782 13.8707 116.707 14.216 116.726 14.608C116.744 15.392 116.987 16.064 117.454 16.624C117.939 17.1653 118.611 17.436 119.47 17.436ZM135.153 22L132.213 16.904V22H127.621V0.467999L132.269 0.187999V12.004L135.685 7.524L141.061 7.44L135.853 14.384L141.117 22H135.153Z" fill="black"/>
<defs>
<linearGradient id="paint0_linear" x1="16.0323" y1="-2.50227" x2="-6.65225" y2="6.87221" gradientUnits="userSpaceOnUse">
<stop stop-color="#7332F0"/>
<stop offset="1" stop-color="#2745F3"/>
</linearGradient>
<linearGradient id="paint1_linear" x1="21.5525" y1="15.2334" x2="5.36568" y2="31.8049" gradientUnits="userSpaceOnUse">
<stop stop-color="#2C43F2"/>
<stop offset="1" stop-color="#2B44F3"/>
</linearGradient>
</defs>
</svg>
