<svg width="22" height="27" viewBox="0 0 22 27" fill="none" xmlns="http://www.w3.org/2000/svg">
<path fill-rule="evenodd" clip-rule="evenodd" d="M20.9785 0.650391C9.88078 0.650391 10.2936 11.851 10.2936 11.851C1.62429 12.1642 -1.00422 18.7225 1.62429 23.5026C3.21953 26.4036 7.21814 27.5944 10.2936 26.3325C13.9655 24.8258 15.1759 21.2188 15.1759 16.7128C15.1759 16.7128 18.9223 16.929 20.9785 17.8883V13.0596C19.3943 12.1425 15.1759 11.851 15.1759 11.851C15.1759 10.9294 15.1759 5.76131 20.9785 5.76131V0.650391ZM10.4083 17.0068C10.4083 17.0068 7.37034 16.7898 6.01789 18.1439C5.95761 18.2042 5.90069 18.268 5.84696 18.3348C4.2389 20.3332 7.36616 23.3476 9.17878 21.5327C10.4649 20.245 10.4083 17.0068 10.4083 17.0068Z" fill="url(#paint0_linear)"/>
<mask id="mask0" mask-type="alpha" maskUnits="userSpaceOnUse" x="0" y="0" width="21" height="27">
<path fill-rule="evenodd" clip-rule="evenodd" d="M20.9785 0.650391C9.88078 0.650391 10.2936 11.851 10.2936 11.851C1.62429 12.1642 -1.00422 18.7225 1.62429 23.5026C3.21953 26.4036 7.21814 27.5944 10.2936 26.3325C13.9655 24.8258 15.1759 21.2188 15.1759 16.7128C15.1759 16.7128 18.9223 16.929 20.9785 17.8883V13.0596C19.3943 12.1425 15.1759 11.851 15.1759 11.851C15.1759 10.9294 15.1759 5.76131 20.9785 5.76131V0.650391ZM10.4083 17.0068C10.4083 17.0068 7.37034 16.7898 6.01789 18.1439C5.95761 18.2042 5.90069 18.268 5.84696 18.3348C4.2389 20.3332 7.36616 23.3476 9.17878 21.5327C10.4649 20.245 10.4083 17.0068 10.4083 17.0068Z" fill="white"/>
</mask>
<g mask="url(#mask0)">
<path fill-rule="evenodd" clip-rule="evenodd" d="M10.2936 11.8514C11.3444 11.7818 13.9977 11.7818 15.1758 11.8514C15.3488 11.8616 16.418 11.4314 18.3784 11.8514C19.1185 12.01 20.9785 13.0601 20.9785 13.0601V17.8887C20.9785 17.8887 15.4758 16.7133 15.1758 16.7133C13.7194 16.7133 12.1359 16.8272 10.4106 17.0073C10.2693 17.022 7.72817 16.9867 5.29918 18.2717C3.34095 19.3077 1.50971 21.7556 0.650451 21.5114C-1.27464 20.9643 2.26894 14.7779 2.26894 14.7779C2.26894 14.7779 4.29033 12.9912 5.29918 12.6108C8.04764 11.5745 10.0471 11.8678 10.2936 11.8514Z" fill="url(#paint1_linear)"/>
</g>
<defs>
<linearGradient id="paint0_linear" x1="12.3449" y1="-1.92689" x2="-5.12216" y2="5.29146" gradientUnits="userSpaceOnUse">
<stop stop-color="#7332F0"/>
<stop offset="1" stop-color="#2745F3"/>
</linearGradient>
<linearGradient id="paint1_linear" x1="16.5954" y1="11.7301" x2="4.13161" y2="24.4901" gradientUnits="userSpaceOnUse">
<stop stop-color="#2C43F2"/>
<stop offset="1" stop-color="#2B44F3"/>
</linearGradient>
</defs>
</svg>
