<svg width="35" height="20" viewBox="0 0 35 20" fill="none" xmlns="http://www.w3.org/2000/svg">
    <path d="M28.451 11.4686C27.8967 10.7686 28.0553 10.4571 28.451 9.83143C28.4581 9.82429 33.034 3.50143 33.5054 1.35714L33.5083 1.35571C33.7426 0.574286 33.5083 0 32.3754 0H28.6267C27.6724 0 27.2324 0.492857 26.9966 1.04429C26.9966 1.04429 25.088 5.61286 22.3879 8.57429C21.5165 9.43 21.1136 9.70429 20.6379 9.70429C20.4036 9.70429 20.0393 9.43 20.0393 8.64857V1.35571C20.0393 0.418571 19.7721 0 18.9821 0H13.0876C12.489 0 12.1333 0.437143 12.1333 0.844286C12.1333 1.73286 13.4833 1.93714 13.6233 4.43714V9.86143C13.6233 11.05 13.4076 11.2686 12.929 11.2686C11.6547 11.2686 8.56172 6.68143 6.7288 1.43143C6.35879 0.412857 5.99735 0.00142857 5.03589 0.00142857H1.28576C0.215722 0.00142857 0 0.494286 0 1.04571C0 2.02 1.27433 6.86429 5.92592 13.2643C9.02603 17.6329 13.3919 20 17.3635 20C19.7507 20 20.0421 19.4743 20.0421 18.57C20.0421 14.3957 19.8264 14.0014 21.0222 14.0014C21.5765 14.0014 22.5308 14.2757 24.7594 16.3829C27.3067 18.8814 27.7252 20 29.151 20H32.8997C33.9683 20 34.5098 19.4743 34.1983 18.4371C33.4854 16.2557 28.6681 11.7686 28.451 11.4686Z" fill="black" fill-opacity="0.3"/>
</svg>
