<svg id="Layer_1" enable-background="new 0 0 512.004 512.004" height="512" viewBox="0 0 512.004 512.004" width="512" xmlns="http://www.w3.org/2000/svg"><path d="m466.502 120v152c0 11.046-8.954 20-20 20s-20-8.954-20-20v-152c0-44.112-35.888-80-80-80h-184c-44.112 0-80 35.888-80 80v152c0 11.046-8.954 20-20 20s-20-8.954-20-20v-152c0-66.168 53.832-120 120-120h184c66.168 0 120 53.832 120 120zm-104-22c0-11.046-8.954-20-20-20s-20 8.954-20 20c0 16.542-13.458 30-30 30h-76c-16.542 0-30-13.458-30-30 0-11.046-8.954-20-20-20s-20 8.954-20 20c0 38.598 31.402 70 70 70h76c38.598 0 70-31.402 70-70zm-12 112h-105c-11.046 0-20 8.954-20 20s8.954 20 20 20h105c11.046 0 20-8.954 20-20s-8.954-20-20-20zm-185-5c-13.807 0-25 11.193-25 25s11.193 25 25 25 25-11.193 25-25-11.193-25-25-25zm-114 184.237v21.763h50c11.046 0 20 8.954 20 20s-8.954 20-20 20h-50v41c0 11.046-8.954 20-20 20s-20-8.954-20-20v-102.763c0-32.663 26.574-59.237 59.238-59.237h30.763c11.046 0 20 8.954 20 20s-8.954 20-20 20h-30.763c-10.608 0-19.238 8.629-19.238 19.237zm220.515 98.384c2.419 10.777-4.357 21.475-15.135 23.894-1.475.331-2.948.49-4.398.49-9.152 0-17.408-6.321-19.496-15.625l-5.248-23.38h-50.67l-5.019 23.224c-2.333 10.797-12.982 17.654-23.773 15.325-10.796-2.333-17.657-12.977-15.324-23.773l26.533-122.787c.094-.436.202-.867.325-1.295 5.855-20.393 22.354-33.618 42.032-33.693h.167c19.582 0 36.081 13.062 42.064 33.32.126.425.237.854.334 1.286zm-53.253-54.621-13.207-58.848c-.853-2.541-2.22-4.152-3.555-4.152-.002 0-.004 0-.007 0-1.359.005-2.737 1.648-3.582 4.229l-12.7 58.771zm101.738-103c-11.046 0-20 8.954-20 20v142c0 11.046 8.954 20 20 20s20-8.954 20-20v-142c0-11.046-8.954-20-20-20zm160 112c-11.046 0-20 8.954-20 20 0 5.514-4.486 10-10 10h-20c-11.028 0-20-8.972-20-20v-102c0-11.046-8.954-20-20-20s-20 8.954-20 20v102c0 33.084 26.916 60 60 60h20c27.57 0 50-22.43 50-50 0-11.046-8.954-20-20-20z"/></svg>